<svg width="1024" height="769" viewBox="0 0 1024 769" fill="none" xmlns="http://www.w3.org/2000/svg">
<g clip-path="url(#clip0_106_387)">
<mask id="mask0_106_387" style="mask-type:luminance" maskUnits="userSpaceOnUse" x="0" y="0" width="1024" height="769">
<path d="M1024 0H0V768.722H1024V0Z" fill="white"/>
</mask>
<g mask="url(#mask0_106_387)">
<path d="M615.978 654.729C750.075 654.729 858.782 545.461 858.782 410.671C858.782 275.881 750.075 166.613 615.978 166.613C481.88 166.613 373.173 275.881 373.173 410.671C373.173 545.461 481.88 654.729 615.978 654.729Z" fill="white"/>
<path d="M615.978 654.729C750.075 654.729 858.782 545.461 858.782 410.671C858.782 275.881 750.075 166.613 615.978 166.613C481.88 166.613 373.173 275.881 373.173 410.671C373.173 545.461 481.88 654.729 615.978 654.729Z" stroke="#1B1B1B" stroke-width="1.6" stroke-linecap="round" stroke-linejoin="round"/>
<path d="M615.978 608.746C724.81 608.746 813.035 520.065 813.035 410.671C813.035 301.277 724.81 212.596 615.978 212.596C507.146 212.596 418.92 301.277 418.92 410.671C418.92 520.065 507.146 608.746 615.978 608.746Z" fill="white"/>
<path d="M813.138 410.671C813.147 423.627 811.902 436.553 809.421 449.269C806.935 461.986 803.205 474.427 798.284 486.412C795.822 492.399 793.078 498.26 790.051 503.994C787.026 509.718 783.726 515.286 780.15 520.697C765.808 542.38 747.379 561.055 725.895 575.678C687.873 601.49 642.048 613.219 596.314 608.845C550.581 604.471 507.804 584.266 475.355 551.714C447.474 523.84 428.513 488.29 420.889 449.592C415.808 423.894 415.809 397.448 420.892 371.75C427.241 339.597 441.429 309.513 462.195 284.173C482.96 258.832 509.66 239.02 539.92 226.499C551.954 221.532 564.451 217.774 577.228 215.283C602.811 210.301 629.123 210.408 654.665 215.599C680.164 220.796 704.376 231.018 725.892 245.668C758.252 267.665 783.428 298.709 798.283 334.929C803.205 346.915 806.935 359.356 809.421 372.073C811.902 384.789 813.147 397.715 813.138 410.671ZM812.933 410.671C812.929 397.73 811.673 384.819 809.182 372.12C802.894 340.249 788.87 310.417 768.344 285.252C747.819 260.088 721.423 240.364 691.484 227.822C679.553 222.841 667.157 219.061 654.479 216.536C629.06 211.483 602.896 211.487 577.479 216.549C564.803 219.077 552.41 222.861 540.482 227.845C510.548 240.383 484.16 260.105 463.646 285.27C443.133 310.435 429.125 340.269 422.861 372.137C417.879 397.584 417.879 423.757 422.862 449.204C429.138 481.067 443.149 510.896 463.661 536.059C484.173 561.222 510.556 580.948 540.482 593.496C552.41 598.48 564.803 602.264 577.479 604.792C602.896 609.854 629.06 609.858 654.479 604.805C667.157 602.28 679.553 598.5 691.484 593.52C721.429 580.987 747.831 561.267 768.358 536.101C788.885 510.935 802.906 481.097 809.182 449.222C811.673 436.523 812.929 423.612 812.933 410.671Z" fill="#1B1B1B"/>
<path d="M615.978 563.132C699.747 563.132 767.655 494.873 767.655 410.671C767.655 326.469 699.747 258.21 615.978 258.21C532.208 258.21 464.3 326.469 464.3 410.671C464.3 494.873 532.208 563.132 615.978 563.132Z" fill="white"/>
<path d="M767.758 410.671C767.768 420.645 766.812 430.597 764.905 440.386C762.993 450.177 760.123 459.756 756.337 468.985C754.442 473.595 752.332 478.108 750.005 482.525C747.68 486.934 745.142 491.223 742.392 495.391C731.356 512.096 717.177 526.491 700.646 537.772C675.677 554.804 646.192 563.975 615.978 564.11C605.951 564.163 595.944 563.231 586.099 561.328C556.31 555.542 528.93 540.974 507.476 519.494C485.94 498.003 471.293 470.573 465.406 440.71C461.475 420.877 461.476 400.465 465.409 380.632C470.31 355.824 481.267 332.615 497.304 313.073C513.341 293.532 533.959 278.266 557.321 268.637C566.605 264.817 576.246 261.932 586.101 260.022C605.826 256.206 626.109 256.314 645.792 260.339C665.434 264.367 684.079 272.265 700.643 283.573C725.544 300.539 744.911 324.459 756.337 352.357C760.123 361.585 762.993 371.164 764.905 380.955C766.812 390.745 767.768 400.697 767.758 410.671ZM767.553 410.671C767.55 400.711 766.582 390.775 764.665 381.003C759.825 356.476 749.031 333.518 733.235 314.153C717.438 294.788 697.124 279.611 674.083 269.959C664.902 266.127 655.362 263.218 645.606 261.276C626.045 257.388 605.911 257.392 586.352 261.288C576.598 263.235 567.061 266.147 557.882 269.983C534.849 279.632 514.543 294.809 498.759 314.174C482.975 333.539 472.197 356.497 467.378 381.02C463.546 400.601 463.546 420.74 467.379 440.322C472.207 464.841 482.988 487.794 498.771 507.158C514.554 526.522 534.855 541.701 557.882 551.358C567.061 555.194 576.598 558.106 586.352 560.053C605.911 563.949 626.045 563.953 645.606 560.065C655.362 558.123 664.902 555.214 674.083 551.382C697.129 541.738 717.448 526.563 733.245 507.197C749.043 487.831 759.834 464.869 764.665 440.339C766.582 430.566 767.55 420.63 767.553 410.671Z" fill="#1B1B1B"/>
<path d="M615.978 513.954C672.726 513.954 718.731 467.713 718.731 410.671C718.731 353.629 672.726 307.387 615.978 307.387C559.229 307.387 513.225 353.629 513.225 410.671C513.225 467.713 559.229 513.954 615.978 513.954Z" fill="white"/>
<path d="M718.833 410.671C718.839 417.43 718.192 424.174 716.901 430.808C715.608 437.444 713.666 443.937 711.104 450.192C710.815 450.986 710.444 451.747 710.105 452.52L709.07 454.832C708.743 455.612 708.336 456.353 707.963 457.111L706.823 459.374L706.538 459.94C706.44 460.127 706.332 460.309 706.229 460.493L705.606 461.596L704.358 463.802L704.045 464.353L703.707 464.889L703.031 465.961L701.678 468.105C697.959 473.761 693.699 479.041 688.956 483.869C684.208 488.703 679.006 493.068 673.422 496.903C662.195 504.604 649.552 509.997 636.226 512.767C622.859 515.547 609.075 515.655 595.666 513.085C575.393 509.193 556.743 499.328 542.108 484.756C532.36 475.045 524.627 463.499 519.354 450.785C514.081 438.07 511.372 424.437 511.383 410.671C511.4 403.801 512.08 396.949 513.413 390.21C516.748 373.319 524.219 357.521 535.158 344.233C546.096 330.944 560.158 320.581 576.084 314.073C582.403 311.493 588.964 309.547 595.668 308.265C609.076 305.695 622.859 305.802 636.225 308.582C649.55 311.351 662.193 316.742 673.419 324.443C679.003 328.277 684.206 332.641 688.954 337.474C693.697 342.302 697.958 347.581 701.676 353.237C705.385 358.891 708.542 364.89 711.104 371.149C713.666 377.405 715.608 383.897 716.901 390.533C718.191 397.168 718.839 403.912 718.833 410.671ZM718.628 410.671C718.621 403.926 717.962 397.198 716.662 390.58C713.388 373.972 706.08 358.425 695.382 345.313C684.684 332.2 670.925 321.926 655.321 315.396C649.104 312.803 642.645 310.834 636.039 309.519C622.796 306.877 609.161 306.881 595.92 309.531C575.98 313.524 557.684 323.382 543.373 337.843C529.044 352.276 519.304 370.632 515.382 390.598C512.779 403.853 512.779 417.488 515.383 430.744C518.645 447.345 525.94 462.887 536.625 475.998C547.309 489.109 561.053 499.386 576.645 505.921C582.859 508.518 589.316 510.49 595.92 511.81C609.161 514.46 622.796 514.464 636.039 511.822C655.987 507.841 674.295 497.991 688.619 483.534C702.967 469.1 712.724 450.737 716.662 430.761C717.962 424.143 718.621 417.415 718.628 410.671Z" fill="#1B1B1B"/>
<path d="M615.978 458.049C642.01 458.049 663.113 436.837 663.113 410.671C663.113 384.504 642.01 363.292 615.978 363.292C589.946 363.292 568.843 384.504 568.843 410.671C568.843 436.837 589.946 458.049 615.978 458.049Z" fill="white"/>
<mask id="mask1_106_387" style="mask-type:luminance" maskUnits="userSpaceOnUse" x="568" y="363" width="96" height="96">
<path d="M615.978 458.05C642.01 458.05 663.113 436.838 663.113 410.672C663.113 384.505 642.01 363.293 615.978 363.293C589.946 363.293 568.843 384.505 568.843 410.672C568.843 436.838 589.946 458.05 615.978 458.05Z" fill="white"/>
</mask>
<g mask="url(#mask1_106_387)">
<path d="M651.018 455.715C649.987 455.024 608.79 413.344 608.79 413.344L615.979 406.666L663.114 447.425" fill="white"/>
</g>
<path d="M615.978 458.049C642.01 458.049 663.113 436.837 663.113 410.671C663.113 384.504 642.01 363.292 615.978 363.292C589.946 363.292 568.843 384.504 568.843 410.671C568.843 436.837 589.946 458.049 615.978 458.049Z" stroke="#1B1B1B" stroke-width="1.6" stroke-linecap="round" stroke-linejoin="round"/>
<path d="M838.117 240.209L835.864 257.127L866.459 230.788L872.777 199.898L838.117 240.209Z" fill="white"/>
<path d="M838.21 240.251L837.887 244.56L837.536 248.823C837.424 250.24 837.296 251.647 837.167 253.051L836.785 257.25L835.259 256.422C837.726 254.132 840.215 251.866 842.692 249.586L850.183 242.819C852.673 240.555 855.207 238.341 857.722 236.106C860.247 233.882 862.748 231.631 865.297 229.436L864.714 230.43L866.258 222.7C866.777 220.125 867.274 217.544 867.823 214.975L869.438 207.26L870.246 203.402C870.512 202.116 870.783 200.83 871.069 199.548L874.1 201.037L865.361 210.903L860.936 215.81C859.455 217.444 857.994 219.093 856.49 220.717C853.499 223.976 850.513 227.247 847.462 230.497L845.18 232.941L842.874 235.379C841.345 237.01 839.769 238.624 838.21 240.251ZM838.023 240.167L872.642 199.781C872.668 199.751 872.703 199.73 872.742 199.722C872.781 199.714 872.821 199.72 872.857 199.737C872.892 199.754 872.921 199.783 872.938 199.819C872.956 199.854 872.961 199.895 872.953 199.934L869.816 215.383L866.641 230.825C866.632 230.865 866.611 230.902 866.58 230.928L835.947 257.223C835.934 257.234 835.92 257.243 835.904 257.248C835.888 257.253 835.871 257.255 835.855 257.254C835.838 257.253 835.822 257.248 835.807 257.241C835.792 257.233 835.779 257.223 835.768 257.21C835.756 257.197 835.748 257.181 835.742 257.163C835.737 257.146 835.736 257.128 835.738 257.11L838.023 240.167Z" fill="#1B1B1B"/>
<path d="M610.225 405.763L880.081 220.477C881.238 219.685 882.655 219.365 884.04 219.583C885.426 219.801 886.676 220.54 887.535 221.65C887.943 222.191 888.236 222.81 888.395 223.469C888.555 224.128 888.578 224.813 888.463 225.481C888.348 226.149 888.098 226.787 887.727 227.354C887.357 227.922 886.875 228.408 886.31 228.782L616.454 414.068C615.296 414.86 613.88 415.18 612.494 414.962C611.109 414.744 609.858 414.005 608.999 412.895C608.592 412.354 608.299 411.735 608.14 411.076C607.98 410.417 607.957 409.732 608.072 409.064C608.187 408.396 608.437 407.758 608.807 407.191C609.177 406.623 609.66 406.137 610.225 405.763Z" fill="#1B1B1B"/>
<mask id="mask2_106_387" style="mask-type:luminance" maskUnits="userSpaceOnUse" x="608" y="219" width="281" height="197">
<path d="M610.225 405.763L880.081 220.477C881.238 219.685 882.655 219.365 884.04 219.583C885.426 219.801 886.676 220.54 887.535 221.65C887.943 222.191 888.236 222.81 888.395 223.469C888.555 224.128 888.578 224.813 888.463 225.481C888.348 226.149 888.098 226.787 887.727 227.354C887.357 227.922 886.875 228.408 886.31 228.782L616.454 414.068C615.296 414.86 613.88 415.18 612.494 414.962C611.109 414.744 609.858 414.005 608.999 412.895C608.592 412.354 608.299 411.735 608.14 411.076C607.98 410.417 607.957 409.732 608.072 409.064C608.187 408.396 608.437 407.758 608.807 407.191C609.177 406.623 609.66 406.137 610.225 405.763Z" fill="white"/>
</mask>
<g mask="url(#mask2_106_387)">
<path d="M893.513 219.517C887.535 221.649 603.971 414.737 597.201 424.558C590.431 434.379 882.418 298.817 882.418 298.817L922.883 225.34" fill="#1B1B1B"/>
</g>
<path d="M610.225 405.763L880.081 220.477C881.238 219.685 882.655 219.365 884.04 219.583C885.426 219.801 886.676 220.54 887.535 221.65C887.943 222.191 888.236 222.81 888.395 223.469C888.555 224.128 888.578 224.813 888.463 225.481C888.348 226.149 888.098 226.787 887.727 227.354C887.357 227.922 886.875 228.408 886.31 228.782L616.454 414.068C615.296 414.86 613.88 415.18 612.494 414.962C611.109 414.744 609.858 414.005 608.999 412.895C608.592 412.354 608.299 411.735 608.14 411.076C607.98 410.417 607.957 409.732 608.072 409.064C608.187 408.396 608.437 407.758 608.807 407.191C609.177 406.623 609.66 406.137 610.225 405.763Z" stroke="#1B1B1B" stroke-width="1.6" stroke-linecap="round" stroke-linejoin="round"/>
<path d="M873.376 234.838L908.748 243.987L852.463 260.245L840.263 259.125L873.376 234.838Z" fill="white"/>
<path d="M873.356 234.737L877.748 235.623L882.172 236.548C885.13 237.165 888.105 237.827 891.092 238.466L900.081 240.481C901.585 240.815 903.089 241.165 904.593 241.521L909.11 242.584C909.418 242.656 909.693 242.828 909.893 243.072C910.094 243.316 910.208 243.62 910.22 243.935C910.231 244.251 910.138 244.562 909.955 244.82C909.773 245.078 909.51 245.268 909.209 245.362L909.15 245.38C906.817 246.103 904.493 246.853 902.154 247.553L895.146 249.679C892.808 250.381 890.477 251.109 888.133 251.791L881.107 253.855L874.08 255.918L867.037 257.926L859.993 259.928L856.47 260.925L852.939 261.895L852.895 261.907C852.703 261.959 852.504 261.975 852.306 261.955L846.214 261.314C844.184 261.096 842.151 260.899 840.123 260.662L840.051 260.654C839.743 260.618 839.453 260.489 839.22 260.284C838.987 260.08 838.822 259.809 838.746 259.508C838.67 259.208 838.688 258.891 838.796 258.6C838.904 258.309 839.098 258.058 839.352 257.881L847.883 251.911C850.727 249.935 853.58 247.997 856.413 246.049C857.829 245.07 859.254 244.125 860.67 243.166L864.913 240.309L869.143 237.496L873.356 234.737ZM873.395 234.938L840.357 259.254L840.278 258.967L852.479 260.07L852.414 260.076L866.48 255.993L880.552 251.93L908.706 243.84L908.71 244.136L873.395 234.938Z" fill="#1B1B1B"/>
<path d="M818.366 342.431C820.281 343.411 821.793 345.084 822.856 346.982C823.909 348.913 824.531 351.05 824.678 353.246C824.825 355.441 824.495 357.642 823.709 359.696C822.909 361.72 821.637 363.58 819.876 364.812L819.852 364.829C819.833 364.842 819.81 364.848 819.787 364.847C819.764 364.845 819.742 364.835 819.725 364.82C819.709 364.804 819.698 364.782 819.695 364.759C819.692 364.736 819.697 364.713 819.709 364.693L820.49 363.424L821.148 362.089L821.697 360.707L822.125 359.283C823.074 355.403 822.799 351.324 821.338 347.607L820.723 346.253L819.993 344.957L819.161 343.723L818.217 342.571C818.202 342.553 818.194 342.531 818.194 342.508C818.194 342.484 818.202 342.462 818.216 342.444C818.231 342.426 818.251 342.414 818.273 342.409C818.296 342.404 818.319 342.407 818.34 342.418L818.366 342.431Z" fill="#1B1B1B"/>
<path d="M490.305 538.947C491.5 540.563 492.548 542.043 493.666 543.439C494.773 544.836 495.92 546.143 497.128 547.392C498.349 548.65 499.633 549.844 500.975 550.971C502.338 552.129 503.789 553.217 505.373 554.449L505.404 554.473C505.423 554.487 505.435 554.508 505.44 554.53C505.445 554.553 505.442 554.577 505.431 554.597C505.42 554.618 505.403 554.634 505.381 554.642C505.36 554.651 505.336 554.652 505.314 554.645L503.959 554.213L502.635 553.69L501.353 553.068L500.114 552.364C496.842 550.384 494.132 547.595 492.247 544.265L491.578 543.006L490.991 541.707L490.504 540.368L490.108 539.001C490.101 538.979 490.103 538.955 490.112 538.934C490.121 538.913 490.138 538.895 490.158 538.885C490.179 538.875 490.203 538.872 490.225 538.877C490.248 538.883 490.268 538.896 490.281 538.915L490.305 538.947Z" fill="#1B1B1B"/>
<path d="M309.761 555.064L296.693 628.798L328.975 620.491L346.741 553.553L309.761 555.064Z" fill="white"/>
<mask id="mask3_106_387" style="mask-type:luminance" maskUnits="userSpaceOnUse" x="296" y="553" width="51" height="76">
<path d="M309.763 555.065L296.694 628.799L328.976 620.492L346.743 553.553L309.763 555.065Z" fill="white"/>
</mask>
<g mask="url(#mask3_106_387)">
<path d="M299.309 608.953C311.905 591.559 331.702 593.562 338.048 586.305C344.394 579.049 296.693 584.953 296.693 584.953L293.911 587.709L292.641 602.187" fill="white"/>
</g>
<path d="M309.761 555.064L296.693 628.798L328.975 620.491L346.741 553.553L309.761 555.064Z" stroke="#1B1B1B" stroke-width="1.6" stroke-linecap="round" stroke-linejoin="round"/>
<path d="M295.849 617.101L291.389 649.234L389.836 649.138C389.836 649.138 374.919 604.366 333.789 633.057C321.778 639.187 336.776 607.204 336.776 607.204L295.849 617.101Z" fill="#1B1B1B"/>
<mask id="mask4_106_387" style="mask-type:luminance" maskUnits="userSpaceOnUse" x="291" y="607" width="99" height="43">
<path d="M295.851 617.1L291.39 649.233L389.837 649.137C389.837 649.137 374.921 604.365 333.791 633.056C321.78 639.186 336.778 607.203 336.778 607.203L295.851 617.1Z" fill="white"/>
</mask>
<g mask="url(#mask4_106_387)">
<path d="M383.529 643.611H276.454V660.844H383.529V643.611Z" fill="#1B1B1B"/>
<path d="M383.602 660.916L377.059 661.087C374.878 661.149 372.668 661.184 370.471 661.236L357.237 661.545C352.822 661.665 348.368 661.745 343.912 661.835C339.454 661.922 334.994 662.028 330.508 662.091C321.545 662.233 312.554 662.394 303.532 662.465L289.999 662.593C285.485 662.628 280.969 662.629 276.454 662.645C276.219 662.646 275.986 662.6 275.768 662.511C275.55 662.421 275.352 662.29 275.185 662.124C275.018 661.958 274.885 661.76 274.794 661.543C274.704 661.326 274.656 661.092 274.655 660.857V660.844L274.612 643.611C274.611 643.123 274.803 642.654 275.147 642.309C275.491 641.963 275.958 641.768 276.445 641.767H276.454L303.223 641.837L329.992 642.041L343.376 642.216L350.068 642.303L356.761 642.419L370.145 642.671L383.529 643.007L383.561 643.007C383.638 643.009 383.714 643.026 383.785 643.058C383.855 643.089 383.918 643.134 383.972 643.19C384.025 643.245 384.066 643.311 384.094 643.383C384.122 643.455 384.135 643.532 384.133 643.609V643.611L383.888 652.376L383.734 656.675L383.602 660.916ZM383.457 660.772L383.413 643.61L383.529 643.727L276.454 643.815L276.659 643.61L276.645 660.844L276.454 660.653L383.457 660.772Z" fill="#1B1B1B"/>
</g>
<path d="M295.849 617.101L291.389 649.234L389.836 649.138C389.836 649.138 374.919 604.366 333.789 633.057C321.778 639.187 336.776 607.204 336.776 607.204L295.849 617.101Z" stroke="#1B1B1B" stroke-width="1.6" stroke-linecap="round" stroke-linejoin="round"/>
<path d="M294.031 591.419C313.651 601.986 347.859 582.459 347.859 582.459C347.859 582.459 404.44 461.753 384.916 447.665C365.393 433.576 212.985 397.1 212.985 397.1C212.985 397.1 127.198 543.293 313.632 505.698L294.031 591.419Z" fill="white"/>
<path d="M294.031 591.419C313.651 601.986 347.859 582.459 347.859 582.459C347.859 582.459 404.44 461.753 384.916 447.665C365.393 433.576 212.985 397.1 212.985 397.1C212.985 397.1 127.198 543.293 313.632 505.698L294.031 591.419Z" stroke="#1B1B1B" stroke-width="1.6" stroke-linecap="round" stroke-linejoin="round"/>
<path d="M430.279 344.035C426.806 344.818 417.962 347.938 406.674 352.167L410.382 375.376C422.34 366.708 430.565 360.688 431.306 360.428C434.045 359.464 461.773 367.178 461.43 362.999C461.088 358.821 447.395 340.178 430.279 344.035Z" fill="white"/>
<path d="M430.301 344.135C429.294 344.374 428.299 344.679 427.308 344.99C426.316 345.3 425.331 345.632 424.346 345.965C422.378 346.638 420.415 347.329 418.474 348.081C416.53 348.821 414.589 349.572 412.652 350.333C410.718 351.101 408.795 351.9 406.87 352.69L407.225 352.079L407.784 354.965L408.361 357.848L409.515 363.614L410.668 369.38C411.059 371.301 411.42 373.226 411.796 375.15L409.542 374.216C412.699 371.741 415.902 369.331 419.097 366.906L420.297 365.999L421.509 365.108L423.938 363.328C425.566 362.146 427.172 360.957 428.86 359.796L429.515 359.363L429.681 359.254L429.869 359.138L430.058 359.022L430.153 358.964C430.206 358.935 430.28 358.896 430.344 358.864C430.477 358.795 430.615 358.734 430.757 358.684C430.904 358.637 431.055 358.602 431.207 358.577C431.411 358.546 431.617 358.527 431.824 358.522C432.172 358.514 432.463 358.53 432.752 358.549C433.88 358.635 434.881 358.8 435.899 358.965C437.916 359.307 439.889 359.688 441.851 360.112C443.813 360.527 445.768 360.942 447.721 361.334C449.673 361.723 451.618 362.131 453.562 362.451C454.532 362.611 455.502 362.755 456.463 362.86C457.391 362.977 458.327 363.027 459.262 363.011C459.626 363.005 459.988 362.951 460.337 362.849C460.354 362.839 460.372 362.832 460.39 362.827C460.411 362.821 460.396 362.822 460.406 362.824C460.383 362.859 460.365 362.896 460.351 362.935C460.338 362.965 460.332 362.996 460.332 363.028C460.33 363.053 460.326 363.066 460.336 363.085L460.312 362.86C460.232 362.442 460.108 362.035 459.943 361.643C459.858 361.43 459.772 361.216 459.667 361.002C459.566 360.789 459.47 360.573 459.355 360.362C458.91 359.501 458.415 358.666 457.873 357.863C457.338 357.045 456.746 356.26 456.142 355.483C454.911 353.938 453.561 352.493 452.103 351.16C451.376 350.49 450.615 349.856 449.836 349.244C449.445 348.94 449.04 348.655 448.642 348.358C448.232 348.08 447.815 347.813 447.401 347.54C445.719 346.482 443.929 345.606 442.062 344.929C438.293 343.57 434.219 343.295 430.301 344.135ZM430.256 343.935C432.224 343.493 434.245 343.33 436.258 343.45C438.27 343.578 440.257 343.968 442.168 344.612C445.996 345.886 449.479 348.05 452.532 350.659C454.06 351.969 455.489 353.39 456.806 354.911C457.456 355.679 458.095 356.458 458.68 357.278C459.278 358.09 459.829 358.936 460.328 359.812C460.458 360.028 460.572 360.254 460.689 360.478C460.81 360.7 460.915 360.931 461.02 361.163C461.238 361.627 461.408 362.112 461.527 362.611C461.547 362.742 461.572 362.869 461.588 363.004C461.589 363.078 461.586 363.152 461.579 363.226C461.564 363.301 461.542 363.374 461.514 363.445C461.382 363.704 461.163 363.909 460.896 364.023C460.413 364.22 459.902 364.336 459.382 364.367C458.373 364.434 457.36 364.423 456.353 364.335C455.349 364.261 454.351 364.147 453.355 364.019C449.374 363.488 445.436 362.725 441.497 361.99C439.528 361.623 437.559 361.25 435.585 360.934C434.599 360.782 433.608 360.632 432.622 360.565C432.377 360.55 432.131 360.54 431.891 360.548C431.775 360.551 431.659 360.562 431.544 360.579C431.492 360.587 431.441 360.599 431.391 360.614C431.342 360.635 431.295 360.658 431.249 360.684C430.845 360.916 430.42 361.208 430.011 361.487C426.719 363.761 423.479 366.127 420.227 368.468L410.482 375.515C410.446 375.542 410.4 375.553 410.355 375.546C410.31 375.538 410.27 375.514 410.243 375.477C410.228 375.455 410.217 375.43 410.213 375.403L406.538 352.189C406.533 352.157 406.539 352.125 406.555 352.097C406.571 352.07 406.596 352.049 406.626 352.038C410.527 350.584 414.434 349.146 418.358 347.754C420.321 347.058 422.287 346.374 424.264 345.718C425.253 345.394 426.243 345.07 427.24 344.767C428.237 344.464 429.236 344.168 430.256 343.935Z" fill="#1B1B1B"/>
<path d="M317.997 387.106L310.859 327.576L304.109 312.837L231.08 354.852C231.08 354.852 287.872 443.676 305.673 442.39C318.661 441.452 378.115 398.767 410.382 375.376L406.674 352.167C373.131 364.735 317.997 387.106 317.997 387.106Z" fill="white"/>
<path d="M317.997 387.106L310.859 327.576L304.109 312.837L231.08 354.852C231.08 354.852 287.872 443.676 305.673 442.39C318.661 441.452 378.115 398.767 410.382 375.376L406.674 352.167C373.131 364.735 317.997 387.106 317.997 387.106Z" stroke="#1B1B1B" stroke-width="1.6" stroke-linecap="round" stroke-linejoin="round"/>
<path d="M346.122 326.742L263.722 340.312L268.313 294.151H342.897L346.122 326.742Z" fill="white"/>
<mask id="mask5_106_387" style="mask-type:luminance" maskUnits="userSpaceOnUse" x="263" y="294" width="84" height="47">
<path d="M346.122 326.742L263.722 340.312L268.313 294.151H342.897L346.122 326.742Z" fill="white"/>
</mask>
<g mask="url(#mask5_106_387)">
<path d="M334.116 304.814C331.263 323.73 334.737 323.977 324.695 331.794C314.653 339.611 345.685 341.216 346.296 341.421C346.907 341.626 352.41 331.999 352.41 331.999L350.168 324.01" fill="white"/>
</g>
<path d="M346.122 326.742L263.722 340.312L268.313 294.151H342.897L346.122 326.742Z" stroke="#1B1B1B" stroke-width="1.6" stroke-linecap="round" stroke-linejoin="round"/>
<path d="M374.774 558.247L366.761 629.695L401.382 621.465L411.367 553.166L374.774 558.247Z" fill="white"/>
<mask id="mask6_106_387" style="mask-type:luminance" maskUnits="userSpaceOnUse" x="366" y="553" width="46" height="77">
<path d="M374.772 558.247L366.76 629.696L401.38 621.465L411.365 553.167L374.772 558.247Z" fill="white"/>
</mask>
<g mask="url(#mask6_106_387)">
<path d="M366.76 614.315C374.076 597.873 397.202 594.837 406.326 587.64C415.45 580.443 372.333 587.71 372.333 587.71L363.303 595.929" fill="white"/>
</g>
<path d="M374.774 558.247L366.761 629.695L401.382 621.465L411.367 553.166L374.774 558.247Z" stroke="#1B1B1B" stroke-width="1.6" stroke-linecap="round" stroke-linejoin="round"/>
<path d="M365.669 619.721L363.005 650.514L462.833 651.509C462.833 651.509 450.549 607.068 408.899 633.161C396.852 638.585 408.399 608.953 408.399 608.953L365.669 619.721Z" fill="#1B1B1B"/>
<mask id="mask7_106_387" style="mask-type:luminance" maskUnits="userSpaceOnUse" x="363" y="608" width="100" height="44">
<path d="M365.67 619.721L363.007 650.514L462.834 651.509C462.834 651.509 450.551 607.068 408.901 633.161C396.854 638.585 408.4 608.953 408.4 608.953L365.67 619.721Z" fill="white"/>
</mask>
<g mask="url(#mask7_106_387)">
<path d="M494.848 643.611H340.613V660.844H494.848V643.611Z" fill="#1B1B1B"/>
<path d="M494.921 660.917L485.437 661.095L475.904 661.248L456.782 661.57L451.992 661.656L447.186 661.726L437.561 661.864L427.923 662.006L418.258 662.119L398.897 662.343L379.486 662.493C373.011 662.534 366.536 662.596 360.055 662.613L340.613 662.657C340.134 662.658 339.674 662.469 339.334 662.13C338.994 661.792 338.803 661.332 338.802 660.852V660.844L338.771 643.611C338.77 643.122 338.963 642.654 339.307 642.308C339.651 641.962 340.119 641.768 340.606 641.767H340.613L379.172 641.84L417.731 642.072C430.584 642.2 443.436 642.293 456.289 642.483L465.929 642.61C469.142 642.647 472.355 642.721 475.569 642.775L494.848 643.125L494.866 643.126C494.992 643.128 495.112 643.18 495.2 643.271C495.287 643.362 495.335 643.484 495.333 643.61V643.611L495.247 647.995C495.22 649.454 495.178 650.905 495.137 652.347C495.055 655.233 494.978 658.086 494.921 660.917ZM494.776 660.772L494.736 643.611L494.848 643.723L340.613 643.815L340.818 643.611L340.808 660.844L340.613 660.649L494.776 660.772Z" fill="#1B1B1B"/>
</g>
<path d="M365.669 619.721L363.005 650.514L462.833 651.509C462.833 651.509 450.549 607.068 408.899 633.161C396.852 638.585 408.399 608.953 408.399 608.953L365.669 619.721Z" stroke="#1B1B1B" stroke-width="1.6" stroke-linecap="round" stroke-linejoin="round"/>
<path d="M363.305 595.929C384.024 604.541 415.794 581.809 415.794 581.809C415.794 581.809 439.437 463.145 419.964 436.169C392.949 398.746 179.122 428.686 179.122 428.686C179.122 428.686 103.653 547.251 366.762 492.997L363.305 595.929Z" fill="white"/>
<path d="M363.305 595.929C384.024 604.541 415.794 581.809 415.794 581.809C415.794 581.809 439.437 463.145 419.964 436.169C392.949 398.746 179.122 428.686 179.122 428.686C179.122 428.686 103.653 547.251 366.762 492.997L363.305 595.929Z" stroke="#1B1B1B" stroke-width="1.6" stroke-linecap="round" stroke-linejoin="round"/>
<path d="M161.063 429.577C159.873 492.769 276.24 435.521 276.24 435.521L307.956 334.564C307.956 334.564 291.653 305.068 307.956 292.778C307.956 292.778 164.116 267.562 161.063 429.577Z" fill="white"/>
<mask id="mask8_106_387" style="mask-type:luminance" maskUnits="userSpaceOnUse" x="161" y="291" width="147" height="169">
<path d="M161.062 429.576C159.872 492.768 276.239 435.521 276.239 435.521L307.954 334.563C307.954 334.563 291.652 305.067 307.954 292.777C307.954 292.777 164.114 267.562 161.062 429.576Z" fill="white"/>
</mask>
<g mask="url(#mask8_106_387)">
<path d="M231.079 352.249C202.957 397.108 287.542 422.23 252.009 445.845C216.476 469.46 182.458 460.42 205.809 473.188C229.16 485.957 268.248 465.754 268.248 465.754L320.146 409.834L313.487 404.304L276.55 351.144L231.079 352.249Z" fill="white"/>
</g>
<path d="M161.063 429.577C159.873 492.769 276.24 435.521 276.24 435.521L307.956 334.564C307.956 334.564 291.653 305.068 307.956 292.778C307.956 292.778 164.116 267.562 161.063 429.577Z" stroke="#1B1B1B" stroke-width="1.6" stroke-linecap="round" stroke-linejoin="round"/>
<path d="M542.713 365.708H392.949V398.745H542.713V365.708Z" fill="#1B1B1B"/>
<mask id="mask9_106_387" style="mask-type:luminance" maskUnits="userSpaceOnUse" x="392" y="365" width="151" height="34">
<path d="M542.712 365.708H392.948V398.745H542.712V365.708Z" fill="white"/>
</mask>
<g mask="url(#mask9_106_387)">
<path d="M377.968 352.578C363.448 385.745 545.434 351.617 542.712 398.745C539.99 445.873 549.504 356.192 549.504 356.192L518.87 347.448" fill="#1B1B1B"/>
</g>
<path d="M542.713 365.708H392.949V398.745H542.713V365.708Z" stroke="#1B1B1B" stroke-width="1.6" stroke-linecap="round" stroke-linejoin="round"/>
<path d="M518.87 398.746H435.727V655.731H518.87V398.746Z" fill="#1B1B1B"/>
<mask id="mask10_106_387" style="mask-type:luminance" maskUnits="userSpaceOnUse" x="435" y="398" width="84" height="258">
<path d="M518.869 398.745H435.726V655.731H518.869V398.745Z" fill="white"/>
</mask>
<g mask="url(#mask10_106_387)">
<path d="M426.865 397.1C563.474 382.227 518.87 655.732 518.87 655.732L542.713 418.823L531.719 374.765" fill="#1B1B1B"/>
</g>
<path d="M518.87 398.746H435.727V655.731H518.87V398.746Z" stroke="#1B1B1B" stroke-width="1.6" stroke-linecap="round" stroke-linejoin="round"/>
<path d="M497.904 359.347H414.33V365.708H497.904V359.347Z" fill="#1B1B1B"/>
<path d="M497.832 359.419C490.622 359.674 483.54 359.884 476.501 360.097L466.001 360.389L460.778 360.53L455.58 360.645L445.218 360.867L434.905 361.017C428.035 361.137 421.19 361.135 414.33 361.17L416.151 359.347L416.172 365.708L414.33 363.865L435.224 363.944L445.67 364.057C449.153 364.1 452.635 364.12 456.117 364.194L466.564 364.383C470.046 364.445 473.528 364.55 477.011 364.631C480.493 364.709 483.975 364.824 487.457 364.936C490.94 365.037 494.422 365.181 497.904 365.314L497.51 365.708C497.551 364.695 497.616 363.671 497.673 362.624C497.732 361.577 497.789 360.506 497.832 359.419ZM497.976 359.275C497.996 361.41 498.012 363.562 498.014 365.708C498.014 365.738 498.002 365.765 497.981 365.786C497.961 365.807 497.933 365.818 497.904 365.818L414.33 365.913C414.303 365.913 414.277 365.908 414.252 365.898C414.227 365.887 414.205 365.872 414.186 365.853C414.167 365.835 414.152 365.812 414.141 365.787C414.131 365.762 414.126 365.736 414.126 365.709V365.708L414.132 359.347C414.132 359.321 414.137 359.295 414.147 359.271C414.157 359.247 414.172 359.225 414.19 359.207C414.208 359.189 414.23 359.174 414.254 359.164C414.278 359.154 414.304 359.149 414.33 359.149H414.33L497.976 359.275Z" fill="#1B1B1B"/>
<path d="M508.142 278.332L511.083 278.335L497.788 365.712L494.847 365.708L508.142 278.332Z" fill="#1B1B1B"/>
<path d="M508.075 278.254C509.041 278.206 510.049 278.14 511.083 278.097C511.116 278.095 511.148 278.101 511.179 278.113C511.209 278.126 511.237 278.145 511.259 278.168C511.282 278.192 511.299 278.221 511.309 278.252C511.32 278.283 511.324 278.316 511.321 278.348L511.318 278.371L511.029 281.12L510.719 283.867L510.091 289.359C509.647 293.017 509.225 296.677 508.763 300.332L507.371 311.295L505.905 322.247L505.166 327.722L504.394 333.192L502.85 344.132L499.609 365.989C499.544 366.426 499.324 366.825 498.989 367.112C498.654 367.4 498.227 367.557 497.786 367.555L494.845 367.542H494.831C494.592 367.541 494.354 367.492 494.133 367.399C493.912 367.307 493.712 367.171 493.543 367.001C493.374 366.83 493.241 366.628 493.15 366.406C493.059 366.184 493.013 365.946 493.014 365.706C493.015 365.615 493.023 365.523 493.036 365.432L494.766 354.369C495.343 350.681 495.92 346.991 496.538 343.317C497.754 335.965 498.959 328.612 500.245 321.326C501.494 314.021 502.807 306.782 504.101 299.584C505.419 292.406 506.722 285.26 508.075 278.254ZM508.209 278.409L495.046 365.739L494.847 365.507H497.788L497.586 365.681L510.978 278.319L511.083 278.441C510.126 278.439 509.173 278.426 508.209 278.409Z" fill="#1B1B1B"/>
<path d="M326.853 308.268C325.149 302.782 324.497 297.023 324.929 291.294C326.257 272.711 338.056 258.957 351.282 260.576C364.508 262.194 374.153 278.571 372.825 297.155C371.497 315.738 359.699 329.492 346.473 327.873C340.858 327.186 335.889 323.84 332.13 318.794" fill="white"/>
<path d="M326.755 308.299C326.133 306.614 325.615 304.893 325.204 303.144C324.806 301.384 324.512 299.603 324.324 297.808C323.954 294.195 324.006 290.55 324.479 286.949C324.714 285.138 325.065 283.344 325.532 281.578C325.996 279.801 326.573 278.056 327.259 276.353C327.953 274.638 328.782 272.982 329.74 271.4C330.7 269.8 331.795 268.285 333.014 266.873C334.249 265.442 335.63 264.143 337.135 263C338.671 261.845 340.349 260.893 342.128 260.167C343.935 259.43 345.843 258.973 347.788 258.814C349.742 258.655 351.709 258.795 353.621 259.228C355.524 259.664 357.354 260.376 359.052 261.341C360.729 262.291 362.286 263.44 363.688 264.764C366.431 267.382 368.684 270.469 370.343 273.88C371.976 277.238 373.154 280.799 373.847 284.469C374.552 288.11 374.825 291.822 374.66 295.528C374.565 297.374 374.374 299.214 374.087 301.04C373.793 302.867 373.39 304.675 372.881 306.453C371.882 310.033 370.374 313.45 368.403 316.6C367.415 318.181 366.295 319.674 365.055 321.066C363.811 322.468 362.421 323.732 360.906 324.835C359.385 325.946 357.731 326.861 355.982 327.559C354.23 328.258 352.383 328.692 350.503 328.848C348.633 328.993 346.753 328.841 344.93 328.399C343.127 327.974 341.399 327.279 339.803 326.338C338.228 325.417 336.774 324.302 335.475 323.019C334.2 321.746 333.052 320.351 332.048 318.855L332.045 318.851C332.031 318.829 332.025 318.802 332.03 318.776C332.035 318.75 332.05 318.727 332.071 318.711C332.093 318.696 332.12 318.69 332.146 318.693C332.172 318.697 332.196 318.711 332.212 318.732C334.344 321.565 336.986 324.066 340.13 325.722C341.693 326.561 343.371 327.167 345.109 327.521C346.845 327.882 348.627 327.967 350.389 327.772C352.15 327.576 353.873 327.121 355.502 326.423C357.131 325.724 358.665 324.822 360.069 323.739C362.866 321.54 365.226 318.836 367.026 315.766C367.939 314.242 368.742 312.655 369.427 311.016C370.117 309.378 370.695 307.695 371.155 305.978C371.623 304.264 371.989 302.523 372.25 300.765C372.774 297.246 372.898 293.678 372.62 290.131C372.481 288.36 372.237 286.598 371.891 284.856C371.216 281.365 370.079 277.981 368.51 274.791C366.971 271.589 364.875 268.686 362.32 266.219C359.761 263.784 356.618 261.921 353.176 261.108C349.717 260.279 346.088 260.535 342.779 261.841C339.48 263.129 336.582 265.326 334.213 267.955C331.854 270.618 329.934 273.64 328.527 276.908C327.111 280.175 326.111 283.607 325.55 287.123C324.972 290.638 324.795 294.207 325.022 297.762C325.243 301.319 325.89 304.835 326.95 308.237C326.958 308.262 326.955 308.289 326.943 308.313C326.931 308.336 326.91 308.354 326.885 308.363C326.86 308.372 326.833 308.37 326.809 308.359C326.785 308.348 326.766 308.328 326.757 308.303L326.755 308.299Z" fill="#1B1B1B"/>
<path d="M372.663 251.447C366.474 242.979 354.494 242.221 344.913 249.258C333.808 244.545 322.047 247.925 317.438 257.771C314.795 263.416 315.042 270.068 317.542 276.18C317.313 276.61 317.075 277.03 316.865 277.48C311.221 289.54 314.491 304.016 324.172 309.815C333.851 315.613 346.274 310.537 351.919 298.478C352.922 296.327 353.661 294.062 354.119 291.733C355.022 291.177 355.873 290.541 356.664 289.834C360.463 288.732 363.957 286.766 366.872 284.09C376.742 275.19 379.335 260.575 372.663 251.447Z" fill="#1B1B1B"/>
<path d="M372.58 251.507C371.055 249.425 369.065 247.729 366.769 246.553C364.472 245.393 361.947 244.757 359.375 244.691C356.812 244.644 354.261 245.069 351.851 245.945C349.446 246.807 347.192 248.045 345.173 249.613C345.116 249.658 345.048 249.687 344.976 249.697C344.904 249.707 344.83 249.699 344.763 249.672L344.741 249.664C340.867 248.134 336.641 247.487 332.58 248.04C328.534 248.588 324.667 250.367 321.908 253.258C321.212 253.969 320.585 254.744 320.036 255.574C319.484 256.399 319.003 257.269 318.599 258.176C318.199 259.083 317.872 260.022 317.624 260.982L317.527 261.34C317.498 261.46 317.476 261.583 317.45 261.704L317.299 262.431L317.19 263.166L317.136 263.534L317.103 263.904C317.004 264.892 316.976 265.885 317.019 266.876C317.056 267.372 317.072 267.868 317.141 268.361C317.173 268.608 317.192 268.855 317.233 269.101L317.355 269.837C317.711 271.801 318.284 273.719 319.061 275.557C319.153 275.775 319.196 276.012 319.186 276.249C319.176 276.486 319.114 276.718 319.003 276.927L318.991 276.951C317.569 279.696 316.623 282.664 316.196 285.727C315.734 288.769 315.805 291.868 316.406 294.885C316.709 296.376 317.146 297.836 317.712 299.248C318.263 300.65 318.971 301.986 319.821 303.23C320.659 304.461 321.645 305.585 322.756 306.577C323.867 307.55 325.101 308.372 326.427 309.02C326.751 309.196 327.095 309.324 327.43 309.474C327.769 309.614 328.118 309.728 328.463 309.852C329.163 310.073 329.878 310.244 330.602 310.361C331.329 310.48 332.064 310.547 332.8 310.56C333.541 310.566 334.281 310.521 335.016 310.424C336.504 310.227 337.96 309.839 339.348 309.269C340.762 308.697 342.103 307.96 343.345 307.073C345.869 305.245 348.009 302.939 349.645 300.286C350.48 298.949 351.199 297.543 351.795 296.084C352.391 294.615 352.864 293.1 353.211 291.553L353.221 291.506C353.248 291.388 353.299 291.277 353.371 291.179C353.443 291.082 353.535 291 353.64 290.94C354.511 290.433 355.336 289.85 356.104 289.196L356.136 289.169C356.223 289.097 356.325 289.044 356.435 289.016C360.208 288.016 363.696 286.149 366.622 283.563C368.104 282.269 369.453 280.831 370.649 279.269C371.247 278.484 371.798 277.664 372.301 276.815C372.808 275.967 373.271 275.094 373.69 274.198C374.524 272.401 375.165 270.519 375.6 268.585C375.816 267.617 375.979 266.637 376.087 265.651C376.178 264.662 376.211 263.669 376.185 262.677C376.185 262.428 376.169 262.181 376.152 261.933C376.134 261.686 376.124 261.437 376.099 261.191C376.041 260.698 375.997 260.203 375.907 259.714C375.752 258.733 375.524 257.765 375.223 256.819C374.927 255.871 374.556 254.947 374.115 254.058C373.669 253.17 373.156 252.317 372.58 251.507ZM372.745 251.386C373.333 252.202 373.857 253.062 374.314 253.957C374.766 254.855 375.146 255.787 375.452 256.745C375.762 257.701 375.999 258.68 376.161 259.672C376.256 260.165 376.304 260.666 376.365 261.164C376.392 261.414 376.403 261.665 376.423 261.915C376.442 262.166 376.459 262.416 376.461 262.668C376.494 263.672 376.466 264.677 376.38 265.677C376.286 266.677 376.137 267.671 375.933 268.655C375.523 270.622 374.903 272.54 374.085 274.375C372.445 278.056 370.063 281.358 367.088 284.075C364.133 286.824 360.577 288.844 356.704 289.977L356.762 289.945C355.966 290.659 355.107 291.301 354.197 291.863L354.267 291.762C353.949 293.379 353.498 294.967 352.919 296.51C352.336 298.051 351.623 299.541 350.787 300.961C349.124 303.821 346.916 306.326 344.289 308.335C342.97 309.331 341.539 310.169 340.025 310.83C339.267 311.16 338.49 311.444 337.698 311.679C336.903 311.906 336.094 312.08 335.276 312.202C334.458 312.323 333.632 312.388 332.805 312.395C331.977 312.394 331.15 312.334 330.331 312.214C329.512 312.096 328.702 311.917 327.908 311.68C327.516 311.549 327.121 311.425 326.735 311.274C326.354 311.113 325.964 310.973 325.596 310.783C324.098 310.072 322.705 309.161 321.453 308.075C320.21 306.981 319.106 305.738 318.165 304.375C316.3 301.634 315.025 298.535 314.419 295.275C313.793 292.027 313.737 288.694 314.254 285.427C314.507 283.797 314.896 282.19 315.417 280.625C315.93 279.057 316.588 277.54 317.381 276.094L317.374 276.248C316.567 274.271 315.995 272.205 315.667 270.095L315.557 269.302C315.521 269.037 315.507 268.77 315.48 268.505C315.421 267.974 315.417 267.439 315.393 266.906C315.375 265.838 315.434 264.77 315.569 263.71L315.617 263.312L315.685 262.917L315.825 262.128L316.008 261.348C316.04 261.218 316.067 261.087 316.103 260.958L316.217 260.574C316.513 259.547 316.892 258.545 317.351 257.58C317.812 256.615 318.355 255.691 318.974 254.819C319.589 253.944 320.285 253.128 321.054 252.384C321.819 251.638 322.648 250.959 323.53 250.356C324.418 249.761 325.353 249.242 326.327 248.803C328.279 247.932 330.356 247.373 332.482 247.147C336.73 246.684 341.054 247.473 344.965 249.135L344.835 249.15C346.933 247.607 349.252 246.39 351.715 245.541C354.18 244.69 356.781 244.299 359.387 244.387C361.998 244.476 364.558 245.139 366.884 246.33C369.205 247.535 371.212 249.267 372.745 251.386Z" fill="#1B1B1B"/>
<path d="M350.59 305.555C333.623 288.192 324.375 310.757 339.478 313.779Z" fill="white"/>
<path d="M350.517 305.627C349.843 305.222 349.199 304.802 348.549 304.405C347.891 304.017 347.253 303.621 346.598 303.268L346.114 302.998L345.624 302.746C345.301 302.572 344.971 302.422 344.647 302.263C343.991 301.965 343.336 301.694 342.682 301.466C342.044 301.25 341.391 301.079 340.729 300.954C340.108 300.839 339.477 300.791 338.846 300.811C338.263 300.827 337.685 300.926 337.13 301.106C336.603 301.269 336.108 301.523 335.667 301.855C334.766 302.529 334.105 303.473 333.779 304.551C333.423 305.688 333.411 306.906 333.746 308.05C334.123 309.298 334.832 310.42 335.797 311.295C336.795 312.268 338.095 312.998 339.498 313.678L339.521 313.689C339.543 313.7 339.56 313.718 339.57 313.741C339.579 313.764 339.58 313.789 339.573 313.812C339.565 313.835 339.549 313.855 339.528 313.867C339.507 313.88 339.482 313.884 339.458 313.879C337.934 313.611 336.478 313.044 335.174 312.209C333.864 311.347 332.839 310.114 332.23 308.668C331.629 307.209 331.514 305.595 331.904 304.065C332.097 303.303 332.414 302.578 332.841 301.919C333.275 301.26 333.819 300.681 334.449 300.208C335.084 299.741 335.796 299.39 336.553 299.17C337.306 298.954 338.087 298.852 338.87 298.868C340.424 298.927 341.949 299.301 343.355 299.967C346.171 301.256 348.549 303.285 350.664 305.483C350.681 305.501 350.691 305.524 350.692 305.549C350.693 305.573 350.685 305.597 350.67 305.616C350.655 305.635 350.633 305.648 350.609 305.653C350.585 305.657 350.56 305.653 350.539 305.64L350.517 305.627Z" fill="#1B1B1B"/>
<path d="M399.046 344.805C395.945 345.554 388.048 348.536 377.969 352.579L381.28 374.765C391.957 366.479 399.302 360.725 399.963 360.475C402.409 359.554 427.168 366.927 426.863 362.933C426.557 358.939 414.33 341.118 399.046 344.805Z" fill="white"/>
<mask id="mask11_106_387" style="mask-type:luminance" maskUnits="userSpaceOnUse" x="377" y="344" width="50" height="31">
<path d="M399.045 344.807C395.943 345.555 388.047 348.537 377.967 352.58L381.278 374.766C391.955 366.48 399.3 360.726 399.962 360.477C402.407 359.555 427.167 366.929 426.861 362.935C426.555 358.94 414.328 341.12 399.045 344.807Z" fill="white"/>
</mask>
<g mask="url(#mask11_106_387)">
<path d="M377.969 349.708C383.606 369.574 391.746 366.64 391.746 366.64L384.796 379.627L368.723 377.621L374.557 351.982" fill="white"/>
</g>
<path d="M399.046 344.805C395.945 345.554 388.048 348.536 377.969 352.579L381.28 374.765C391.957 366.479 399.302 360.725 399.963 360.475C402.409 359.554 427.168 366.927 426.863 362.933C426.557 358.939 414.33 341.118 399.046 344.805Z" stroke="#1B1B1B" stroke-width="1.6" stroke-linecap="round" stroke-linejoin="round"/>
<path d="M225.226 347.682C243.781 382.938 278.495 445.843 289.97 445.846C320.733 445.855 379.705 385.914 382.512 379.341C385.319 372.769 382.181 353.671 374.72 350.799C367.259 347.927 298.785 385.977 298.785 385.977L287.624 336.376" fill="white"/>
<path d="M225.226 347.682C243.781 382.938 278.495 445.843 289.97 445.846C320.733 445.855 379.705 385.914 382.512 379.341C385.319 372.769 382.181 353.671 374.72 350.799C367.259 347.927 298.785 385.977 298.785 385.977L287.624 336.376" stroke="#1B1B1B" stroke-width="1.6" stroke-linecap="round" stroke-linejoin="round"/>
<path d="M163.067 663.705H158.475L196.512 511.714H201.103L163.067 663.705Z" fill="#1B1B1B"/>
<path d="M163.13 663.786L158.475 663.928C158.447 663.928 158.418 663.924 158.392 663.913C158.365 663.903 158.34 663.888 158.32 663.869C158.299 663.849 158.282 663.826 158.271 663.8C158.259 663.774 158.252 663.746 158.252 663.717C158.251 663.699 158.253 663.682 158.256 663.665L158.259 663.651C159.659 657.272 161.154 650.916 162.607 644.55C164.075 638.188 165.517 631.819 167.006 625.462L171.494 606.396L176.054 587.349L178.34 577.826L180.659 568.312L185.297 549.284L194.725 511.266C194.824 510.867 195.054 510.513 195.378 510.26C195.702 510.007 196.101 509.87 196.512 509.87L201.103 509.88H201.111C201.596 509.881 202.061 510.074 202.404 510.419C202.746 510.763 202.938 511.229 202.937 511.715C202.936 511.865 202.917 512.014 202.881 512.16L198.049 531.285C196.435 537.659 194.829 544.037 193.179 550.395C189.896 563.115 186.63 575.839 183.286 588.492C179.975 601.164 176.632 613.78 173.257 626.339L168.193 645.112L165.674 654.478L163.13 663.786ZM163.004 663.624L200.908 511.665L201.103 511.916L196.512 511.919L196.71 511.764L158.577 663.731L158.475 663.6L163.004 663.624Z" fill="#1B1B1B"/>
<path d="M336.02 663.705H340.612L302.576 511.714H297.984L336.02 663.705Z" fill="#1B1B1B"/>
<path d="M336.084 663.624L340.612 663.482L340.397 663.759C338.627 657.472 336.952 651.162 335.235 644.862C333.533 638.558 331.805 632.261 330.124 625.952L325.103 607.02L320.154 588.07L317.686 578.594L315.25 569.109L310.38 550.139L300.789 512.162L302.576 513.558L297.984 513.549L299.762 511.268L304.439 530.141C305.995 536.433 307.559 542.721 309.078 549.029C312.135 561.64 315.208 574.248 318.203 586.928C321.231 599.586 324.228 612.302 327.193 625.075L331.638 644.3L333.873 653.933L336.084 663.624ZM335.958 663.786L297.789 511.763C297.782 511.737 297.781 511.711 297.785 511.685C297.788 511.658 297.797 511.633 297.811 511.61C297.825 511.588 297.843 511.568 297.864 511.552C297.885 511.536 297.909 511.525 297.935 511.518C297.951 511.514 297.968 511.512 297.984 511.512L302.576 511.509C302.621 511.509 302.665 511.525 302.701 511.553C302.737 511.581 302.763 511.62 302.774 511.664L340.714 663.679C340.721 663.706 340.717 663.735 340.703 663.759C340.689 663.783 340.666 663.8 340.639 663.807C340.63 663.809 340.621 663.81 340.612 663.81L335.958 663.786Z" fill="#1B1B1B"/>
<path d="M316.901 503.529H179.892C177.966 503.529 176.405 505.091 176.405 507.019V511.507C176.405 513.435 177.966 514.998 179.892 514.998H316.901C318.827 514.998 320.388 513.435 320.388 511.507V507.019C320.388 505.091 318.827 503.529 316.901 503.529Z" fill="#1B1B1B"/>
<mask id="mask12_106_387" style="mask-type:luminance" maskUnits="userSpaceOnUse" x="176" y="503" width="145" height="12">
<path d="M316.9 503.53H179.891C177.965 503.53 176.403 505.093 176.403 507.021V511.509C176.403 513.436 177.965 514.999 179.891 514.999H316.9C318.826 514.999 320.387 513.436 320.387 511.509V507.021C320.387 505.093 318.826 503.53 316.9 503.53Z" fill="white"/>
</mask>
<g mask="url(#mask12_106_387)">
<path d="M158.475 495.828C153.898 526.805 309.33 496.623 302.576 511.714C295.821 526.806 316.908 514.998 316.908 514.998L334.056 503.529L225.226 482.452" fill="#232C3F"/>
</g>
<path d="M316.901 503.529H179.892C177.966 503.529 176.405 505.091 176.405 507.019V511.507C176.405 513.435 177.966 514.998 179.892 514.998H316.901C318.827 514.998 320.388 513.435 320.388 511.507V507.019C320.388 505.091 318.827 503.529 316.901 503.529Z" stroke="#1B1B1B" stroke-width="1.6" stroke-linecap="round" stroke-linejoin="round"/>
<path d="M391.254 213.849C421.152 213.849 445.39 189.486 445.39 159.433C445.39 129.38 421.152 105.017 391.254 105.017C361.355 105.017 337.118 129.38 337.118 159.433C337.118 189.486 361.355 213.849 391.254 213.849Z" fill="white"/>
<path d="M391.254 213.849C421.152 213.849 445.39 189.486 445.39 159.433C445.39 129.38 421.152 105.017 391.254 105.017C361.355 105.017 337.118 129.38 337.118 159.433C337.118 189.486 361.355 213.849 391.254 213.849Z" stroke="#1B1B1B" stroke-width="1.6" stroke-linecap="round" stroke-linejoin="round"/>
<path d="M594.69 418.823C606.626 418.823 616.302 409.097 616.302 397.1C616.302 385.102 606.626 375.376 594.69 375.376C582.754 375.376 573.078 385.102 573.078 397.1C573.078 409.097 582.754 418.823 594.69 418.823Z" fill="white"/>
<path d="M616.404 397.1C616.426 399.964 615.889 402.805 614.821 405.463C614.289 406.793 613.639 408.074 612.879 409.289C612.11 410.505 611.224 411.644 610.233 412.688C607.191 415.937 603.257 418.211 598.926 419.226C594.594 420.24 590.06 419.949 585.894 418.39C584.48 417.853 583.123 417.178 581.843 416.374C580.551 415.57 579.349 414.632 578.255 413.575C577.157 412.514 576.164 411.348 575.293 410.094C574.411 408.838 573.666 407.491 573.071 406.077C571.86 403.239 571.236 400.185 571.237 397.1C571.237 394.014 571.862 390.961 573.074 388.124C574.287 385.305 576.05 382.757 578.26 380.629C581.521 377.508 585.646 375.441 590.096 374.697C594.547 373.953 599.119 374.567 603.216 376.458C604.54 377.064 605.801 377.8 606.98 378.654C608.148 379.506 609.237 380.463 610.232 381.513C611.222 382.557 612.108 383.695 612.877 384.911C613.637 386.126 614.288 387.406 614.821 388.737C615.888 391.394 616.426 394.235 616.404 397.1ZM616.199 397.1C616.199 392.836 614.938 388.668 612.575 385.12C610.212 381.572 606.854 378.804 602.922 377.163C599.656 375.818 596.109 375.301 592.595 375.656C589.081 376.011 585.709 377.229 582.778 379.201C579.847 381.172 577.446 383.837 575.79 386.959C574.134 390.082 573.273 393.565 573.283 397.1C573.273 401.35 574.519 405.509 576.865 409.053C579.212 412.596 582.553 415.365 586.468 417.012C590.393 418.655 594.719 419.089 598.892 418.26C603.066 417.43 606.897 415.374 609.897 412.353C613.93 408.303 616.196 402.818 616.199 397.1Z" fill="#1B1B1B"/>
<path d="M136.863 377.916C148.799 377.916 158.475 368.19 158.475 356.192C158.475 344.195 148.799 334.469 136.863 334.469C124.927 334.469 115.251 344.195 115.251 356.192C115.251 368.19 124.927 377.916 136.863 377.916Z" fill="#1B1B1B"/>
<path d="M158.577 356.192C158.599 359.056 158.062 361.897 156.994 364.555C156.462 365.886 155.812 367.166 155.052 368.381C154.283 369.598 153.397 370.736 152.407 371.781C149.364 375.029 145.43 377.304 141.099 378.318C136.767 379.333 132.233 379.042 128.067 377.482C126.653 376.945 125.296 376.27 124.016 375.466C122.724 374.663 121.522 373.725 120.428 372.668C119.33 371.606 118.337 370.44 117.466 369.186C116.584 367.93 115.839 366.584 115.244 365.169C114.033 362.331 113.409 359.278 113.41 356.192C113.41 353.107 114.035 350.053 115.247 347.216C116.46 344.397 118.223 341.849 120.433 339.721C123.694 336.6 127.819 334.533 132.269 333.789C136.72 333.045 141.292 333.659 145.389 335.551C146.713 336.156 147.974 336.892 149.153 337.746C150.321 338.598 151.41 339.555 152.405 340.605C153.395 341.649 154.281 342.787 155.051 344.004C155.811 345.218 156.461 346.499 156.994 347.829C158.061 350.486 158.599 353.328 158.577 356.192ZM158.372 356.192C158.372 351.928 157.111 347.76 154.748 344.212C152.386 340.665 149.027 337.896 145.095 336.256C141.829 334.911 138.282 334.393 134.768 334.749C131.254 335.104 127.882 336.321 124.951 338.293C122.02 340.265 119.62 342.93 117.963 346.052C116.307 349.174 115.446 352.657 115.456 356.192C115.446 360.443 116.692 364.602 119.038 368.145C121.385 371.688 124.726 374.458 128.641 376.104C132.566 377.747 136.892 378.182 141.065 377.352C145.239 376.522 149.07 374.466 152.07 371.446C156.103 367.395 158.369 361.911 158.372 356.192Z" fill="#1B1B1B"/>
<path d="M396.271 168.12C393.5 170.904 389.501 167.446 386.73 164.661L362.34 144.098C362.338 144.158 362.322 144.214 362.322 144.274V174.592C362.318 176.288 362.988 177.916 364.184 179.118C365.38 180.32 367.003 180.997 368.698 181.001H413.81C415.505 180.997 417.129 180.32 418.324 179.118C419.52 177.916 420.19 176.288 420.186 174.592V144.274C420.186 144.214 420.17 144.158 420.169 144.098L396.271 168.12Z" fill="white"/>
<mask id="mask13_106_387" style="mask-type:luminance" maskUnits="userSpaceOnUse" x="362" y="144" width="59" height="38">
<path d="M396.269 168.119C393.499 170.904 389.499 167.446 386.729 164.661L362.338 144.098C362.337 144.158 362.321 144.214 362.321 144.274V174.591C362.317 176.288 362.987 177.916 364.183 179.118C365.378 180.319 367.002 180.997 368.697 181H413.809C415.504 180.997 417.127 180.319 418.323 179.118C419.519 177.916 420.189 176.288 420.185 174.591V144.274C420.185 144.214 420.169 144.158 420.167 144.098L396.269 168.119Z" fill="white"/>
</mask>
<g mask="url(#mask13_106_387)">
<path d="M354.639 154.037C362.34 144.099 383.103 172.645 391.255 170.209C399.407 167.772 391.255 144.099 391.255 144.099L356.306 137.866" fill="white"/>
</g>
<path d="M396.271 168.12C393.5 170.904 389.501 167.446 386.73 164.661L362.34 144.098C362.338 144.158 362.322 144.214 362.322 144.274V174.592C362.318 176.288 362.988 177.916 364.184 179.118C365.38 180.32 367.003 180.997 368.698 181.001H413.81C415.505 180.997 417.129 180.32 418.324 179.118C419.52 177.916 420.19 176.288 420.186 174.592V144.274C420.186 144.214 420.17 144.158 420.169 144.098L396.271 168.12Z" stroke="#1B1B1B" stroke-width="1.6" stroke-linecap="round" stroke-linejoin="round"/>
<path d="M396.27 168.12L420.168 144.098C420.129 142.435 419.442 140.853 418.255 139.689C417.067 138.525 415.472 137.87 413.81 137.865H368.698C367.035 137.87 365.441 138.525 364.253 139.689C363.066 140.853 362.379 142.435 362.339 144.098L386.237 168.12C386.895 168.782 387.676 169.307 388.537 169.665C389.398 170.024 390.321 170.208 391.254 170.208C392.186 170.208 393.11 170.024 393.971 169.665C394.831 169.307 395.613 168.782 396.27 168.12Z" fill="white"/>
<path d="M396.198 168.047L402.128 161.998C403.122 160.995 404.094 159.97 405.067 158.947L407.99 155.88L409.451 154.346L410.897 152.797L413.785 149.696C415.716 147.634 417.617 145.542 419.533 143.465L419.272 144.123C419.187 142.97 418.738 141.873 417.991 140.991C417.629 140.562 417.201 140.193 416.724 139.899C416.252 139.616 415.739 139.407 415.203 139.279C415.069 139.254 414.937 139.223 414.803 139.2L414.398 139.159C414.264 139.143 414.126 139.157 413.992 139.152L413.784 139.152L413.531 139.161L411.506 139.228L407.455 139.362C404.755 139.466 402.055 139.498 399.355 139.564C398.005 139.588 396.654 139.632 395.304 139.641L391.254 139.671C385.854 139.742 380.453 139.67 375.053 139.621L371.002 139.534L368.977 139.49L368.724 139.485L368.528 139.49C368.403 139.497 368.274 139.486 368.149 139.504L367.774 139.549C367.65 139.573 367.528 139.605 367.404 139.631C366.91 139.756 366.436 139.953 365.999 140.216C365.558 140.491 365.163 140.834 364.83 141.233C364.143 142.052 363.733 143.068 363.658 144.134L363.274 143.167L370.907 151.456L374.722 155.603L378.56 159.726L380.48 161.786L382.42 163.827L386.305 167.904C386.935 168.574 387.693 169.11 388.535 169.481C389.376 169.852 390.283 170.049 391.203 170.062C392.127 170.076 393.046 169.905 393.903 169.559C394.761 169.213 395.541 168.699 396.198 168.047ZM396.343 168.192C395.33 169.214 394.032 169.908 392.62 170.184C391.207 170.459 389.744 170.303 388.422 169.736C387.544 169.357 386.749 168.811 386.08 168.129L378.127 160.158L362.222 144.216C362.206 144.2 362.193 144.181 362.185 144.16C362.177 144.139 362.173 144.116 362.173 144.094C362.203 143.049 362.48 142.027 362.979 141.109C363.479 140.192 364.187 139.405 365.048 138.813C365.625 138.426 366.259 138.13 366.926 137.937C367.593 137.751 368.285 137.666 368.977 137.684L371.002 137.681L375.053 137.676L391.254 137.668L407.455 137.691L411.506 137.697L413.531 137.7C414.222 137.682 414.912 137.767 415.578 137.952C416.244 138.145 416.876 138.44 417.451 138.826C418.31 139.416 419.017 140.201 419.515 141.116C420.014 142.032 420.289 143.052 420.319 144.094C420.32 144.114 420.316 144.135 420.309 144.154C420.301 144.173 420.29 144.19 420.275 144.205L396.343 168.192Z" fill="#1B1B1B"/>
<path d="M365.65 290.142C365.935 290.176 366.211 290.266 366.462 290.407C366.713 290.547 366.934 290.736 367.112 290.962C367.29 291.188 367.422 291.447 367.5 291.724C367.578 292.001 367.601 292.29 367.567 292.576L367.129 296.285C367.061 296.862 366.766 297.389 366.31 297.749C365.854 298.109 365.274 298.272 364.697 298.204C364.121 298.136 363.595 297.841 363.235 297.385C362.875 296.928 362.712 296.348 362.78 295.77L363.218 292.061C363.286 291.484 363.581 290.958 364.037 290.598C364.493 290.238 365.073 290.074 365.65 290.142Z" fill="#1B1B1B"/>
<path d="M368.438 283.059C361.904 281.989 360.121 284.553 364.162 285.49C368.203 286.427 372.706 283.759 368.438 283.059Z" fill="#1B1B1B"/>
<path d="M371.013 295.079C378.412 301.181 374.46 309.302 369.145 306.633Z" fill="white"/>
<path d="M371.078 295C371.476 295.093 371.865 295.224 372.238 295.391C372.428 295.47 372.606 295.564 372.79 295.656C372.971 295.751 373.138 295.865 373.314 295.973C374.017 296.425 374.641 296.989 375.163 297.642C375.716 298.32 376.154 299.084 376.459 299.904C376.538 300.114 376.595 300.333 376.661 300.549C376.722 300.767 376.763 300.994 376.813 301.217C376.886 301.677 376.923 302.142 376.922 302.608C376.918 302.843 376.888 303.082 376.869 303.318C376.838 303.554 376.795 303.793 376.748 304.029C376.631 304.507 376.461 304.97 376.242 305.411C376.13 305.635 376.002 305.852 375.86 306.059C375.72 306.272 375.563 306.471 375.388 306.657C375.215 306.846 375.03 307.024 374.833 307.189C374.629 307.347 374.414 307.492 374.189 307.622C374.076 307.686 373.963 307.747 373.848 307.803L373.485 307.944C373.246 308.032 372.999 308.098 372.747 308.14C372.261 308.218 371.764 308.205 371.283 308.102C370.837 308.008 370.412 307.833 370.029 307.585C369.847 307.462 369.68 307.325 369.519 307.195C369.371 307.045 369.231 306.888 369.099 306.724L369.071 306.688C369.058 306.671 369.051 306.649 369.051 306.627C369.051 306.606 369.059 306.584 369.073 306.567C369.087 306.55 369.106 306.538 369.127 306.534C369.148 306.529 369.171 306.531 369.191 306.541C369.833 306.86 370.544 307.016 371.26 306.996C371.611 306.986 371.959 306.924 372.292 306.812C372.456 306.751 372.615 306.678 372.769 306.594L372.997 306.465L373.209 306.31C373.767 305.875 374.2 305.3 374.463 304.644C374.737 303.987 374.877 303.281 374.875 302.57C374.888 301.853 374.794 301.139 374.596 300.451C374.394 299.759 374.108 299.094 373.746 298.471C373.573 298.153 373.363 297.858 373.162 297.557C372.938 297.273 372.729 296.975 372.482 296.709C372.011 296.154 371.498 295.635 370.948 295.158C370.932 295.143 370.921 295.123 370.917 295.102C370.913 295.08 370.917 295.058 370.927 295.039C370.937 295.019 370.954 295.004 370.974 294.995C370.993 294.986 371.016 294.984 371.037 294.989L371.078 295Z" fill="#1B1B1B"/>
<path opacity="0.27" d="M362.018 299.98C362.54 298.24 361.231 296.309 359.093 295.666C356.956 295.023 354.799 295.912 354.277 297.651C353.754 299.391 355.064 301.323 357.201 301.966C359.339 302.609 361.496 301.72 362.018 299.98Z" fill="white"/>
<path d="M358.147 304.045C360.344 308.675 364.802 308.759 364.802 308.759Z" fill="white"/>
<path d="M358.24 304.001C358.662 304.13 359.075 304.287 359.476 304.472C359.842 304.616 360.127 304.786 360.427 304.917C360.94 305.178 361.434 305.475 361.905 305.806C362.37 306.15 362.811 306.524 363.226 306.926C363.783 307.473 364.31 308.051 364.803 308.656L364.863 308.728C364.872 308.74 364.879 308.755 364.88 308.77C364.882 308.785 364.88 308.801 364.873 308.815C364.867 308.829 364.856 308.84 364.843 308.848C364.83 308.857 364.815 308.861 364.8 308.861C364.435 308.855 364.071 308.82 363.712 308.755C363.355 308.684 363.003 308.59 362.659 308.474C361.268 307.999 360.047 307.125 359.147 305.962C358.923 305.676 358.719 305.375 358.535 305.061C358.353 304.748 358.215 304.411 358.055 304.089C358.048 304.075 358.045 304.059 358.047 304.044C358.048 304.029 358.055 304.014 358.064 304.002C358.074 303.99 358.087 303.981 358.102 303.976C358.117 303.972 358.133 303.971 358.148 303.976L358.24 304.001Z" fill="#1B1B1B"/>
<path d="M341.965 305.65C341.636 305.499 341.276 305.432 340.916 305.453C340.693 305.466 340.474 305.515 340.268 305.599C340.147 305.643 340.036 305.712 339.943 305.801C339.888 305.863 339.899 305.897 339.911 305.889C339.927 305.885 339.896 305.849 339.815 305.86C339.686 305.88 339.562 305.925 339.451 305.993C339.255 306.103 339.079 306.243 338.928 306.409C338.685 306.676 338.511 306.998 338.421 307.347L338.394 307.441C338.39 307.455 338.382 307.467 338.372 307.477C338.361 307.487 338.348 307.494 338.334 307.497C338.32 307.5 338.306 307.499 338.292 307.494C338.278 307.489 338.266 307.481 338.257 307.47C338.048 307.214 337.904 306.912 337.837 306.588C337.775 306.263 337.779 305.928 337.85 305.604C337.906 305.268 338.042 304.951 338.247 304.679C338.451 304.408 338.718 304.189 339.024 304.042C339.331 303.895 339.668 303.824 340.008 303.835C340.348 303.846 340.68 303.939 340.976 304.105C341.272 304.255 341.535 304.463 341.748 304.717C341.956 304.974 342.098 305.277 342.164 305.601C342.166 305.615 342.165 305.629 342.16 305.643C342.155 305.656 342.147 305.668 342.136 305.677C342.124 305.686 342.111 305.692 342.097 305.694C342.083 305.696 342.068 305.694 342.055 305.688L341.965 305.65Z" fill="#1B1B1B"/>
<path d="M344.147 258.102C344.591 258.932 344.974 259.793 345.291 260.679C345.556 261.405 345.783 262.145 345.969 262.895C346.155 263.646 346.302 264.405 346.412 265.171C346.549 266.101 346.62 267.04 346.624 267.981L346.623 268.055C346.623 268.073 346.618 268.091 346.607 268.106C346.597 268.121 346.582 268.132 346.565 268.138C346.548 268.145 346.529 268.145 346.511 268.141C346.494 268.136 346.478 268.126 346.466 268.112L346.034 267.6L345.631 267.062L345.268 266.496L344.938 265.909C344.104 264.307 343.659 262.531 343.639 260.725L343.653 260.052L343.706 259.381L343.807 258.717L343.946 258.061C343.95 258.043 343.959 258.027 343.972 258.014C343.986 258.002 344.002 257.994 344.02 257.991C344.038 257.989 344.057 257.991 344.073 258C344.089 258.008 344.103 258.021 344.111 258.036L344.147 258.102Z" fill="#1B1B1B"/>
<path d="M298.819 387.115C298.916 388.144 298.725 389.18 298.267 390.107C297.854 390.972 297.275 391.747 296.562 392.388C295.852 393.032 295.023 393.53 294.122 393.856C293.156 394.219 292.108 394.307 291.095 394.111L291.028 394.097C291.01 394.094 290.993 394.084 290.981 394.071C290.968 394.058 290.96 394.041 290.957 394.023C290.954 394.005 290.956 393.987 290.964 393.97C290.971 393.953 290.984 393.939 291 393.93L291.558 393.595L292.106 393.243L292.647 392.883L293.176 392.506C294.575 391.485 295.862 390.319 297.015 389.027L297.442 388.537L297.854 388.034L298.259 387.525L298.648 387.001C298.659 386.987 298.674 386.976 298.691 386.97C298.709 386.964 298.727 386.963 298.745 386.968C298.762 386.973 298.778 386.983 298.79 386.997C298.802 387.01 298.809 387.027 298.811 387.046L298.819 387.115Z" fill="#1B1B1B"/>
<path d="M202.785 421.501C204.29 421.714 205.562 422.02 206.811 422.304L210.433 423.17L214.054 424.047C215.295 424.361 216.568 424.664 218.005 425.152L218.055 425.169C218.075 425.175 218.092 425.189 218.104 425.207C218.116 425.225 218.121 425.246 218.119 425.267C218.118 425.288 218.109 425.309 218.094 425.324C218.08 425.34 218.061 425.35 218.04 425.354L217.038 425.523L216.027 425.639L215.01 425.688L213.992 425.684C211.264 425.625 208.58 424.981 206.122 423.795L205.212 423.337L204.328 422.833L203.48 422.271L202.663 421.666C202.646 421.653 202.633 421.635 202.628 421.615C202.622 421.594 202.623 421.572 202.631 421.553C202.639 421.533 202.654 421.516 202.672 421.506C202.69 421.495 202.712 421.491 202.733 421.494L202.785 421.501Z" fill="#1B1B1B"/>
<path d="M367.859 492.308C367.663 491.657 367.635 490.967 367.777 490.302C367.886 489.8 368.118 489.334 368.452 488.945C368.788 488.559 369.215 488.26 369.693 488.077C370.328 487.837 371.012 487.76 371.684 487.853L371.787 487.865C371.797 487.866 371.807 487.87 371.816 487.874C371.824 487.879 371.832 487.886 371.838 487.894C371.845 487.902 371.849 487.911 371.852 487.92C371.855 487.93 371.856 487.94 371.854 487.95C371.853 487.963 371.848 487.976 371.84 487.987L371.399 488.576L370.943 489.152C370.637 489.534 370.317 489.904 370.005 490.281C369.68 490.647 369.362 491.019 369.031 491.38L368.531 491.918L368.015 492.442C368.008 492.449 367.999 492.455 367.99 492.459C367.981 492.463 367.971 492.465 367.961 492.465C367.951 492.465 367.941 492.463 367.932 492.459C367.922 492.455 367.914 492.45 367.907 492.443C367.897 492.433 367.89 492.422 367.887 492.409L367.859 492.308Z" fill="#1B1B1B"/>
<path d="M476.081 555.095C477.765 556.8 479.236 558.516 480.729 560.191C482.21 561.871 483.683 563.515 485.175 565.144C486.668 566.771 488.183 568.378 489.731 569.995C491.273 571.625 492.86 573.235 494.421 575.051L494.442 575.075C494.458 575.093 494.467 575.116 494.467 575.14C494.467 575.164 494.458 575.188 494.443 575.206C494.427 575.224 494.405 575.236 494.382 575.24C494.358 575.243 494.334 575.238 494.314 575.225L492.853 574.314L491.423 573.351L490.037 572.328L488.687 571.256C485.113 568.349 481.979 564.938 479.382 561.131L478.428 559.695L477.524 558.227L476.685 556.721L475.898 555.188C475.887 555.167 475.884 555.142 475.89 555.119C475.895 555.096 475.909 555.075 475.928 555.061C475.947 555.047 475.971 555.041 475.995 555.043C476.019 555.045 476.041 555.055 476.058 555.072L476.081 555.095Z" fill="#1B1B1B"/>
</g>
</g>
<defs>
<clipPath id="clip0_106_387">
<rect width="1024" height="768.722" fill="white"/>
</clipPath>
</defs>
</svg>
